<svg xmlns="http://www.w3.org/2000/svg" version="1.1" width="30" height="32"><rect id="backgroundrect" width="100%" height="100%" x="0" y="0" fill="none" stroke="none"/>
<title>66</title>

<g class="currentLayer" style=""><title>Layer 1</title><path fill="#829984" d="M14.277 1.509c-4.263 0.403-7.732 2.215-10.276 5.367-5.868 7.27-3.484 18.050 4.906 22.185 8.474 4.176 18.65-0.881 20.549-10.212 1.679-8.252-4.156-16.273-12.567-17.274-0.441-0.052-2.267-0.099-2.612-0.066zM15.927 4.987c4.068 0.156 8.019 3.031 9.552 6.95 3.27 8.358-4.197 16.935-12.886 14.799-4.556-1.12-8.075-5.302-8.331-9.901-0.012-0.21-0.029-0.492-0.038-0.628-0.159-2.385 0.955-5.413 2.752-7.48 2.052-2.36 5.589-3.959 8.333-3.767 0.070 0.005 0.347 0.017 0.617 0.028z" id="svg_1" class=""/><path fill="#829984" fill-opacity="1" stroke="none" stroke-opacity="1" stroke-width="1" stroke-dasharray="none" stroke-linejoin="miter" stroke-linecap="butt" stroke-dashoffset="" fill-rule="nonzero" opacity="1" marker-start="" marker-mid="" marker-end="" d="M3.75,15.62500011920929 C3.75,8.718922771142992 9.343922651933703,3.1250001192092896 16.25,3.1250001192092896 C23.156077348066297,3.1250001192092896 28.75,8.718922771142992 28.75,15.62500011920929 C28.75,22.531077467275587 23.156077348066297,28.12500011920929 16.25,28.12500011920929 C9.343922651933703,28.12500011920929 3.75,22.531077467275587 3.75,15.62500011920929 z" id="svg_2" class=""/><path fill="#829984" fill-opacity="1" stroke="none" stroke-opacity="1" stroke-width="1" stroke-dasharray="none" stroke-linejoin="miter" stroke-linecap="butt" stroke-dashoffset="" fill-rule="nonzero" opacity="1" marker-start="" marker-mid="" marker-end="" d="M20,20 C20,19.447513812154696 20.671270718232044,19 21.5,19 C22.328729281767956,19 23,19.447513812154696 23,20 C23,20.552486187845304 22.328729281767956,21 21.5,21 C20.671270718232044,21 20,20.552486187845304 20,20 Z" id="svg_4"/></g></svg>